Coordinates
version=1
nRows=15
nColumns=23
inDegrees=yes

Units are S.I. units (second, meters, Newtons, ...)
If the header above contains a line with 'inDegrees', this indicates whether rotational values are in degrees (yes) or radians (no).

endheader
time	pelvis_tilt	pelvis_list	pelvis_rotation	pelvis_tx	pelvis_ty	pelvis_tz	hip_flexion_r	hip_adduction_r	hip_rotation_r	knee_angle_r	knee_angle_r_beta	ankle_angle_r	subtalar_angle_r	mtp_angle_r	hip_flexion_l	hip_adduction_l	hip_rotation_l	knee_angle_l	knee_angle_l_beta	ankle_angle_l	subtalar_angle_l	mtp_angle_l
      7.50000000	    -11.13386632	      3.66966791	     -2.40912100	      2.34815968	      1.01326857	      0.99018201	    -15.06428035	     -5.68464192	     -7.20156558	     23.89889793	      0.41711446	    -13.67023092	      4.42716820	      0.00000000	     45.43281014	      0.81468318	    -10.27263581	     42.61676036	      0.74380278	      4.35490599	     -7.97026685	      0.00000000
      7.50666667	    -11.25646987	      3.70862701	     -2.24287277	      2.34875984	      1.01349709	      0.98982203	    -14.88836381	     -5.97500287	     -7.56479492	     26.64616796	      0.46506336	    -13.73854645	      3.31794564	      0.00000000	     44.74243212	      1.06606464	    -10.85383404	     37.93713693	      0.66212795	      5.22997821	     -5.81976943	      0.00000000
      7.51333333	    -11.28984226	      3.85464945	     -1.86688033	      2.34928678	      1.01322623	      0.98919293	    -14.70021287	     -6.29160423	     -7.96720775	     29.66931716	      0.51782727	    -13.49019021	      1.76741940	      0.00000000	     43.82664268	      1.71484059	    -11.02348597	     33.23428432	      0.58004769	      6.01542798	     -3.94706798	      0.00000000
      7.52000000	    -11.19252787	      4.08570196	     -1.48611068	      2.34966204	      1.01249514	      0.98861588	    -14.45226353	     -6.72058169	     -8.42490391	     33.05305980	      0.57688472	    -12.98723258	      0.19592154	      0.00000000	     42.67986126	      2.49823592	    -11.05785095	     28.68378931	      0.50062657	      6.80560975	     -2.08648427	      0.00000000
      7.52666667	    -10.95317791	      4.43756320	     -1.12429043	      2.34983919	      1.01138928	      0.98814845	    -14.15383264	     -7.32591790	     -8.97890505	     36.76528090	      0.64167520	    -12.46011165	     -1.31259134	      0.00000000	     41.29761409	      3.42245546	    -10.92242338	     24.32746469	      0.42459436	      7.42411073	     -0.53447993	      0.00000000
      7.53333333	    -10.60976016	      4.80295046	     -0.65229519	      2.34991673	      1.00985053	      0.98757770	    -13.86101663	     -7.95722560	     -9.71008106	     40.64732983	      0.70942974	    -11.94799899	     -2.84916666	      0.00000000	     39.76716019	      4.47980739	    -10.30713781	     20.31169984	      0.35450604	      7.85892596	      0.41891187	      0.00000000
      7.54000000	    -10.28341535	      5.17239971	     -0.07418862	      2.34991706	      1.00780151	      0.98704078	    -13.44261981	     -8.56476360	    -10.50534664	     44.65040691	      0.77929661	    -11.69834096	     -4.76944560	      0.00000000	     38.34889596	      5.49399059	     -9.69009758	     16.97513470	      0.29627199	      8.18207324	      1.34361932	      0.00000000
      7.54666667	     -9.88060863	      5.58493373	      0.61632850	      2.34968947	      1.00551024	      0.98639366	    -13.00034107	     -9.24466465	    -11.48310807	     48.76917178	      0.85118262	    -11.51456665	     -6.55386881	      0.00000000	     36.78577193	      6.66260314	     -8.35673286	     13.96689209	      0.24376825	      7.95151800	      0.80575070	      0.00000000
      7.55333333	     -9.50506874	      6.04369179	      1.23172357	      2.34940491	      1.00281601	      0.98589495	    -12.38615848	    -10.00286447	    -12.33388759	     52.96587381	      0.92442889	    -11.59506130	     -8.64359346	      0.00000000	     35.59718096	      7.55943721	     -8.10735090	     12.21049910	      0.21311341	      7.93555533	      1.30338437	      0.00000000
      7.56000000	     -9.15823877	      6.55988701	      2.00329868	      2.34887444	      0.99989820	      0.98515177	    -11.65753353	    -10.83494492	    -13.32048245	     57.20313518	      0.99838305	    -11.71017749	    -10.68147412	      0.00000000	     34.50602976	      8.60121508	     -7.42241087	     11.06637414	      0.19314466	      7.42859807	      0.64936667	      0.00000000
      7.56666667	     -8.86706516	      7.18301985	      2.75091864	      2.34818498	      0.99670622	      0.98438068	    -10.74960650	    -11.84663764	    -14.25989108	     61.47616158	      1.07296143	    -11.94624002	    -12.76601965	      0.00000000	     33.79922026	      9.55599555	     -7.60060068	     11.07457029	      0.19328771	      6.93678364	      0.55457155	      0.00000000
      7.57333333	     -8.75718625	      7.85655164	      3.47900651	      2.34716646	      0.99318078	      0.98359959	     -9.48018216	    -12.96878524	    -15.04986735	     65.80601622	      1.14853165	    -12.10825098	    -14.74380039	      0.00000000	     33.44199331	     10.48925166	     -7.83956164	     11.83170264	      0.20650217	      6.05699546	     -0.16862009	      0.00000000
      7.58000000	     -8.70741236	      8.57843069	      4.22928955	      2.34595007	      0.98945610	      0.98272674	     -8.04196640	    -14.18787058	    -15.75287923	     70.08487638	      1.22321185	    -12.26118775	    -16.65284810	      0.00000000	     33.34589211	     11.39137085	     -8.29387637	     13.42796176	      0.23436214	      5.03859692	     -1.03558132	      0.00000000
      7.58666667	     -8.77511073	      9.21196088	      4.92335433	      2.34440556	      0.98544692	      0.98192640	     -6.28727705	    -15.33963100	    -16.19535327	     74.32789157	      1.29726643	    -12.29788050	    -18.37723256	      0.00000000	     33.62715980	     12.06568237	     -8.95130991	     15.92343751	      0.27791641	      4.15723335	     -1.98435818	      0.00000000
      7.59333333	     -8.89569083	      9.80024470	      5.56541970	      2.34262867	      0.98125051	      0.98121743	     -4.30861842	    -16.46433718	    -16.41294676	     78.47568278	      1.36965905	    -12.20089830	    -19.91284030	      0.00000000	     34.07981046	     12.59397649	     -9.61630632	     19.00745858	      0.33174273	      3.51965183	     -2.95512160	      0.00000000
